<?xml version="1.0" encoding="UTF-8" standalone="no"?>
<!DOCTYPE svg PUBLIC "-//W3C//DTD SVG 1.1//EN"
 "http://www.w3.org/Graphics/SVG/1.1/DTD/svg11.dtd">
<!-- Generated by graphviz version 2.40.1 (20161225.0304)
 -->
<!-- Title: dependencies Pages: 1 -->
<svg width="504pt" height="284pt"
 viewBox="0.00 0.00 504.00 284.00" xmlns="http://www.w3.org/2000/svg" xmlns:xlink="http://www.w3.org/1999/xlink">
<g id="graph0" class="graph" transform="scale(1 1) rotate(0) translate(4 280)">
<title>dependencies</title>
<polygon fill="#ffffff" stroke="transparent" points="-4,4 -4,-280 500,-280 500,4 -4,4"/>
<text text-anchor="start" x="227.0091" y="-42.4" font-family="sans-serif" font-weight="bold" font-size="14.00" fill="#000000">Legend</text>
<polygon fill="#ffffb3" stroke="transparent" points="14,-10 14,-30 34,-30 34,-10 14,-10"/>
<text text-anchor="start" x="37.629" y="-15.4" font-family="sans-serif" font-size="14.00" fill="#000000"> &#160;Declarations</text>
<polygon fill="#8dd3c7" stroke="transparent" points="127,-10 127,-30 147,-30 147,-10 127,-10"/>
<text text-anchor="start" x="150.7251" y="-15.4" font-family="sans-serif" font-size="14.00" fill="#000000"> &#160;Module</text>
<polygon fill="#80b1d3" stroke="transparent" points="213,-10 213,-30 233,-30 233,-10 213,-10"/>
<text text-anchor="start" x="236.7812" y="-15.4" font-family="sans-serif" font-size="14.00" fill="#000000"> &#160;Bootstrap</text>
<polygon fill="#fdb462" stroke="transparent" points="310,-10 310,-30 330,-30 330,-10 310,-10"/>
<text text-anchor="start" x="333.6732" y="-15.4" font-family="sans-serif" font-size="14.00" fill="#000000"> &#160;Providers</text>
<polygon fill="#fb8072" stroke="transparent" points="406,-10 406,-30 426,-30 426,-10 406,-10"/>
<text text-anchor="start" x="429.7258" y="-15.4" font-family="sans-serif" font-size="14.00" fill="#000000"> &#160;Exports</text>
<g id="clust1" class="cluster">
<title>cluster_ExpenseModule</title>
<polygon fill="none" stroke="#000000" stroke-dasharray="1,5" points="40,-70 40,-268 456,-268 456,-70 40,-70"/>
</g>
<g id="clust4" class="cluster">
<title>cluster_ExpenseModule_exports</title>
<polygon fill="none" stroke="#000000" points="76,-208 76,-260 382,-260 382,-208 76,-208"/>
</g>
<g id="clust6" class="cluster">
<title>cluster_ExpenseModule_providers</title>
<polygon fill="none" stroke="#000000" points="48,-78 48,-130 448,-130 448,-78 48,-78"/>
</g>
<!-- CloudNotificationService  -->
<g id="node1" class="node">
<title>CloudNotificationService </title>
<polygon fill="#fb8072" stroke="#000000" points="373.8546,-252 210.1454,-252 210.1454,-216 373.8546,-216 373.8546,-252"/>
<text text-anchor="middle" x="292" y="-229.8" font-family="Times,serif" font-size="14.00" fill="#000000">CloudNotificationService </text>
</g>
<!-- ExpenseService  -->
<g id="node2" class="node">
<title>ExpenseService </title>
<polygon fill="#fb8072" stroke="#000000" points="192.404,-252 83.596,-252 83.596,-216 192.404,-216 192.404,-252"/>
<text text-anchor="middle" x="138" y="-229.8" font-family="Times,serif" font-size="14.00" fill="#000000">ExpenseService </text>
</g>
<!-- ExpenseModule -->
<g id="node3" class="node">
<title>ExpenseModule</title>
<polygon fill="#8dd3c7" stroke="#000000" points="219.4762,-187 216.4762,-191 195.4762,-191 192.4762,-187 112.5238,-187 112.5238,-151 219.4762,-151 219.4762,-187"/>
<text text-anchor="middle" x="166" y="-164.8" font-family="Times,serif" font-size="14.00" fill="#000000">ExpenseModule</text>
</g>
<!-- ExpenseModule&#45;&gt;CloudNotificationService  -->
<g id="edge1" class="edge">
<title>ExpenseModule&#45;&gt;CloudNotificationService </title>
<path fill="none" stroke="#000000" stroke-dasharray="5,2" d="M214.9055,-187.1061C214.9055,-187.1061 214.9055,-205.991 214.9055,-205.991"/>
<polygon fill="#000000" stroke="#000000" points="211.4056,-205.9909 214.9055,-215.991 218.4056,-205.991 211.4056,-205.9909"/>
</g>
<!-- ExpenseModule&#45;&gt;ExpenseService  -->
<g id="edge2" class="edge">
<title>ExpenseModule&#45;&gt;ExpenseService </title>
<path fill="none" stroke="#000000" stroke-dasharray="5,2" d="M152.4819,-187.1061C152.4819,-187.1061 152.4819,-205.991 152.4819,-205.991"/>
<polygon fill="#000000" stroke="#000000" points="148.982,-205.9909 152.4819,-215.991 155.982,-205.991 148.982,-205.9909"/>
</g>
<!-- CloudNotificationService -->
<g id="node4" class="node">
<title>CloudNotificationService</title>
<ellipse fill="#fdb462" stroke="#000000" cx="330" cy="-104" rx="110.0295" ry="18"/>
<text text-anchor="middle" x="330" y="-99.8" font-family="Times,serif" font-size="14.00" fill="#000000">CloudNotificationService</text>
</g>
<!-- CloudNotificationService&#45;&gt;ExpenseModule -->
<g id="edge3" class="edge">
<title>CloudNotificationService&#45;&gt;ExpenseModule</title>
<path fill="none" stroke="#000000" d="M219.5716,-104C213.9657,-104 210.5969,-104 210.5969,-104 210.5969,-104 210.5969,-140.8939 210.5969,-140.8939"/>
<polygon fill="#000000" stroke="#000000" points="207.097,-140.8938 210.5969,-150.8939 214.097,-140.8939 207.097,-140.8938"/>
</g>
<!-- ExpenseService -->
<g id="node5" class="node">
<title>ExpenseService</title>
<ellipse fill="#fdb462" stroke="#000000" cx="129" cy="-104" rx="72.9121" ry="18"/>
<text text-anchor="middle" x="129" y="-99.8" font-family="Times,serif" font-size="14.00" fill="#000000">ExpenseService</text>
</g>
<!-- ExpenseService&#45;&gt;ExpenseModule -->
<g id="edge4" class="edge">
<title>ExpenseService&#45;&gt;ExpenseModule</title>
<path fill="none" stroke="#000000" d="M157.1088,-120.7391C157.1088,-120.7391 157.1088,-140.7182 157.1088,-140.7182"/>
<polygon fill="#000000" stroke="#000000" points="153.6089,-140.7182 157.1088,-150.7182 160.6089,-140.7182 153.6089,-140.7182"/>
</g>
</g>
</svg>
