<?xml version="1.0" encoding="UTF-8" standalone="no"?>
<!DOCTYPE svg PUBLIC "-//W3C//DTD SVG 1.1//EN"
 "http://www.w3.org/Graphics/SVG/1.1/DTD/svg11.dtd">
<!-- Generated by graphviz version 2.40.1 (20161225.0304)
 -->
<!-- Title: dependencies Pages: 1 -->
<svg width="618pt" height="284pt"
 viewBox="0.00 0.00 618.00 284.00" xmlns="http://www.w3.org/2000/svg" xmlns:xlink="http://www.w3.org/1999/xlink">
<g id="graph0" class="graph" transform="scale(1 1) rotate(0) translate(4 280)">
<title>dependencies</title>
<polygon fill="#ffffff" stroke="transparent" points="-4,4 -4,-280 614,-280 614,4 -4,4"/>
<text text-anchor="start" x="284.0091" y="-42.4" font-family="sans-serif" font-weight="bold" font-size="14.00" fill="#000000">Legend</text>
<polygon fill="#ffffb3" stroke="transparent" points="71,-10 71,-30 91,-30 91,-10 71,-10"/>
<text text-anchor="start" x="94.629" y="-15.4" font-family="sans-serif" font-size="14.00" fill="#000000"> &#160;Declarations</text>
<polygon fill="#8dd3c7" stroke="transparent" points="184,-10 184,-30 204,-30 204,-10 184,-10"/>
<text text-anchor="start" x="207.7251" y="-15.4" font-family="sans-serif" font-size="14.00" fill="#000000"> &#160;Module</text>
<polygon fill="#80b1d3" stroke="transparent" points="270,-10 270,-30 290,-30 290,-10 270,-10"/>
<text text-anchor="start" x="293.7812" y="-15.4" font-family="sans-serif" font-size="14.00" fill="#000000"> &#160;Bootstrap</text>
<polygon fill="#fdb462" stroke="transparent" points="367,-10 367,-30 387,-30 387,-10 367,-10"/>
<text text-anchor="start" x="390.6732" y="-15.4" font-family="sans-serif" font-size="14.00" fill="#000000"> &#160;Providers</text>
<polygon fill="#fb8072" stroke="transparent" points="463,-10 463,-30 483,-30 483,-10 463,-10"/>
<text text-anchor="start" x="486.7258" y="-15.4" font-family="sans-serif" font-size="14.00" fill="#000000"> &#160;Exports</text>
<g id="clust1" class="cluster">
<title>cluster_AuthModule</title>
<polygon fill="none" stroke="#000000" stroke-dasharray="1,5" points="8,-70 8,-268 602,-268 602,-70 8,-70"/>
</g>
<g id="clust4" class="cluster">
<title>cluster_AuthModule_exports</title>
<polygon fill="none" stroke="#000000" points="270,-208 270,-260 376,-260 376,-208 270,-208"/>
</g>
<g id="clust6" class="cluster">
<title>cluster_AuthModule_providers</title>
<polygon fill="none" stroke="#000000" points="16,-78 16,-130 594,-130 594,-78 16,-78"/>
</g>
<!-- AuthService  -->
<g id="node1" class="node">
<title>AuthService </title>
<polygon fill="#fb8072" stroke="#000000" points="367.9761,-252 278.0239,-252 278.0239,-216 367.9761,-216 367.9761,-252"/>
<text text-anchor="middle" x="323" y="-229.8" font-family="Times,serif" font-size="14.00" fill="#000000">AuthService </text>
</g>
<!-- AuthModule -->
<g id="node2" class="node">
<title>AuthModule</title>
<polygon fill="#8dd3c7" stroke="#000000" points="366.5482,-187 363.5482,-191 342.5482,-191 339.5482,-187 279.4518,-187 279.4518,-151 366.5482,-151 366.5482,-187"/>
<text text-anchor="middle" x="323" y="-164.8" font-family="Times,serif" font-size="14.00" fill="#000000">AuthModule</text>
</g>
<!-- AuthModule&#45;&gt;AuthService  -->
<g id="edge1" class="edge">
<title>AuthModule&#45;&gt;AuthService </title>
<path fill="none" stroke="#000000" stroke-dasharray="5,2" d="M323,-187.1061C323,-187.1061 323,-205.991 323,-205.991"/>
<polygon fill="#000000" stroke="#000000" points="319.5001,-205.9909 323,-215.991 326.5001,-205.991 319.5001,-205.9909"/>
</g>
<!-- AuthService -->
<g id="node3" class="node">
<title>AuthService</title>
<ellipse fill="#fdb462" stroke="#000000" cx="527" cy="-104" rx="59.1083" ry="18"/>
<text text-anchor="middle" x="527" y="-99.8" font-family="Times,serif" font-size="14.00" fill="#000000">AuthService</text>
</g>
<!-- AuthService&#45;&gt;AuthModule -->
<g id="edge2" class="edge">
<title>AuthService&#45;&gt;AuthModule</title>
<path fill="none" stroke="#000000" d="M527,-122.1061C527,-141.3391 527,-169 527,-169 527,-169 376.7631,-169 376.7631,-169"/>
<polygon fill="#000000" stroke="#000000" points="376.7632,-165.5001 366.7631,-169 376.7631,-172.5001 376.7632,-165.5001"/>
</g>
<!-- JwtStrategy -->
<g id="node4" class="node">
<title>JwtStrategy</title>
<ellipse fill="#fdb462" stroke="#000000" cx="393" cy="-104" rx="56.7561" ry="18"/>
<text text-anchor="middle" x="393" y="-99.8" font-family="Times,serif" font-size="14.00" fill="#000000">JwtStrategy</text>
</g>
<!-- JwtStrategy&#45;&gt;AuthModule -->
<g id="edge3" class="edge">
<title>JwtStrategy&#45;&gt;AuthModule</title>
<path fill="none" stroke="#000000" d="M351.5728,-116.5327C351.5728,-116.5327 351.5728,-140.8507 351.5728,-140.8507"/>
<polygon fill="#000000" stroke="#000000" points="348.0729,-140.8506 351.5728,-150.8507 355.0729,-140.8507 348.0729,-140.8506"/>
</g>
<!-- LocalStrategy -->
<g id="node5" class="node">
<title>LocalStrategy</title>
<ellipse fill="#fdb462" stroke="#000000" cx="253" cy="-104" rx="65.4053" ry="18"/>
<text text-anchor="middle" x="253" y="-99.8" font-family="Times,serif" font-size="14.00" fill="#000000">LocalStrategy</text>
</g>
<!-- LocalStrategy&#45;&gt;AuthModule -->
<g id="edge4" class="edge">
<title>LocalStrategy&#45;&gt;AuthModule</title>
<path fill="none" stroke="#000000" d="M298.7144,-116.8419C298.7144,-116.8419 298.7144,-140.5231 298.7144,-140.5231"/>
<polygon fill="#000000" stroke="#000000" points="295.2145,-140.523 298.7144,-150.5231 302.2145,-140.5231 295.2145,-140.523"/>
</g>
<!-- ValidateService -->
<g id="node6" class="node">
<title>ValidateService</title>
<ellipse fill="#fdb462" stroke="#000000" cx="97" cy="-104" rx="72.9063" ry="18"/>
<text text-anchor="middle" x="97" y="-99.8" font-family="Times,serif" font-size="14.00" fill="#000000">ValidateService</text>
</g>
<!-- ValidateService&#45;&gt;AuthModule -->
<g id="edge5" class="edge">
<title>ValidateService&#45;&gt;AuthModule</title>
<path fill="none" stroke="#000000" d="M97,-122.1061C97,-141.3391 97,-169 97,-169 97,-169 269.4249,-169 269.4249,-169"/>
<polygon fill="#000000" stroke="#000000" points="269.425,-172.5001 279.4249,-169 269.4249,-165.5001 269.425,-172.5001"/>
</g>
</g>
</svg>
