<?xml version="1.0" encoding="UTF-8" standalone="no"?>
<!DOCTYPE svg PUBLIC "-//W3C//DTD SVG 1.1//EN"
 "http://www.w3.org/Graphics/SVG/1.1/DTD/svg11.dtd">
<!-- Generated by graphviz version 2.40.1 (20161225.0304)
 -->
<!-- Title: dependencies Pages: 1 -->
<svg width="2752pt" height="352pt"
 viewBox="0.00 0.00 2752.00 352.00" xmlns="http://www.w3.org/2000/svg" xmlns:xlink="http://www.w3.org/1999/xlink">
<g id="graph0" class="graph" transform="scale(1 1) rotate(0) translate(4 348)">
<title>dependencies</title>
<polygon fill="#ffffff" stroke="transparent" points="-4,4 -4,-348 2748,-348 2748,4 -4,4"/>
<text text-anchor="start" x="1351.0091" y="-42.4" font-family="sans-serif" font-weight="bold" font-size="14.00" fill="#000000">Legend</text>
<polygon fill="#ffffb3" stroke="transparent" points="1138,-10 1138,-30 1158,-30 1158,-10 1138,-10"/>
<text text-anchor="start" x="1161.629" y="-15.4" font-family="sans-serif" font-size="14.00" fill="#000000"> &#160;Declarations</text>
<polygon fill="#8dd3c7" stroke="transparent" points="1251,-10 1251,-30 1271,-30 1271,-10 1251,-10"/>
<text text-anchor="start" x="1274.7251" y="-15.4" font-family="sans-serif" font-size="14.00" fill="#000000"> &#160;Module</text>
<polygon fill="#80b1d3" stroke="transparent" points="1337,-10 1337,-30 1357,-30 1357,-10 1337,-10"/>
<text text-anchor="start" x="1360.7812" y="-15.4" font-family="sans-serif" font-size="14.00" fill="#000000"> &#160;Bootstrap</text>
<polygon fill="#fdb462" stroke="transparent" points="1434,-10 1434,-30 1454,-30 1454,-10 1434,-10"/>
<text text-anchor="start" x="1457.6732" y="-15.4" font-family="sans-serif" font-size="14.00" fill="#000000"> &#160;Providers</text>
<polygon fill="#fb8072" stroke="transparent" points="1530,-10 1530,-30 1550,-30 1550,-10 1530,-10"/>
<text text-anchor="start" x="1553.7258" y="-15.4" font-family="sans-serif" font-size="14.00" fill="#000000"> &#160;Exports</text>
<g id="clust1" class="cluster">
<title>cluster_AppModule</title>
<polygon fill="none" stroke="#000000" stroke-dasharray="1,5" points="167,-146 167,-336 884,-336 884,-146 167,-146"/>
</g>
<g id="clust3" class="cluster">
<title>cluster_AppModule_imports</title>
<polygon fill="none" stroke="#000000" points="313,-154 313,-271 876,-271 876,-154 313,-154"/>
</g>
<g id="clust6" class="cluster">
<title>cluster_AppModule_providers</title>
<polygon fill="none" stroke="#000000" points="175,-219 175,-271 305,-271 305,-219 175,-219"/>
</g>
<g id="clust7" class="cluster">
<title>cluster_AuthModule</title>
<polygon fill="none" stroke="#000000" stroke-dasharray="1,5" points="8,-70 8,-138 716,-138 716,-70 8,-70"/>
</g>
<g id="clust10" class="cluster">
<title>cluster_AuthModule_exports</title>
<polygon fill="none" stroke="#000000" points="602,-78 602,-130 708,-130 708,-78 602,-78"/>
</g>
<g id="clust12" class="cluster">
<title>cluster_AuthModule_providers</title>
<polygon fill="none" stroke="#000000" points="16,-78 16,-130 594,-130 594,-78 16,-78"/>
</g>
<g id="clust13" class="cluster">
<title>cluster_EmailModule</title>
<polygon fill="none" stroke="#000000" stroke-dasharray="1,5" points="892,-211 892,-279 1588,-279 1588,-211 892,-211"/>
</g>
<g id="clust16" class="cluster">
<title>cluster_EmailModule_exports</title>
<polygon fill="none" stroke="#000000" points="1288,-219 1288,-271 1580,-271 1580,-219 1288,-219"/>
</g>
<g id="clust18" class="cluster">
<title>cluster_EmailModule_providers</title>
<polygon fill="none" stroke="#000000" points="900,-219 900,-271 1280,-271 1280,-219 900,-219"/>
</g>
<g id="clust19" class="cluster">
<title>cluster_ExpenseModule</title>
<polygon fill="none" stroke="#000000" stroke-dasharray="1,5" points="1596,-211 1596,-279 1906,-279 1906,-211 1596,-211"/>
</g>
<g id="clust22" class="cluster">
<title>cluster_ExpenseModule_exports</title>
<polygon fill="none" stroke="#000000" points="1774,-219 1774,-271 1898,-271 1898,-219 1774,-219"/>
</g>
<g id="clust24" class="cluster">
<title>cluster_ExpenseModule_providers</title>
<polygon fill="none" stroke="#000000" points="1604,-219 1604,-271 1766,-271 1766,-219 1604,-219"/>
</g>
<g id="clust25" class="cluster">
<title>cluster_PlanModule</title>
<polygon fill="none" stroke="#000000" stroke-dasharray="1,5" points="1914,-211 1914,-279 2410,-279 2410,-211 1914,-211"/>
</g>
<g id="clust28" class="cluster">
<title>cluster_PlanModule_exports</title>
<polygon fill="none" stroke="#000000" points="2194,-219 2194,-271 2402,-271 2402,-219 2194,-219"/>
</g>
<g id="clust30" class="cluster">
<title>cluster_PlanModule_providers</title>
<polygon fill="none" stroke="#000000" points="1922,-219 1922,-271 2186,-271 2186,-219 1922,-219"/>
</g>
<g id="clust31" class="cluster">
<title>cluster_ScheduleModule</title>
<polygon fill="none" stroke="#000000" stroke-dasharray="1,5" points="2418,-211 2418,-279 2736,-279 2736,-211 2418,-211"/>
</g>
<g id="clust34" class="cluster">
<title>cluster_ScheduleModule_exports</title>
<polygon fill="none" stroke="#000000" points="2600,-219 2600,-271 2728,-271 2728,-219 2600,-219"/>
</g>
<g id="clust36" class="cluster">
<title>cluster_ScheduleModule_providers</title>
<polygon fill="none" stroke="#000000" points="2426,-219 2426,-271 2592,-271 2592,-219 2426,-219"/>
</g>
<!-- AuthModule -->
<g id="node1" class="node">
<title>AuthModule</title>
<polygon fill="#8dd3c7" stroke="#000000" points="408.5482,-198 405.5482,-202 384.5482,-202 381.5482,-198 321.4518,-198 321.4518,-162 408.5482,-162 408.5482,-198"/>
<text text-anchor="middle" x="365" y="-175.8" font-family="Times,serif" font-size="14.00" fill="#000000">AuthModule</text>
</g>
<!-- AppModule -->
<g id="node7" class="node">
<title>AppModule</title>
<polygon fill="#8dd3c7" stroke="#000000" points="738.6571,-328 735.6571,-332 714.6571,-332 711.6571,-328 655.3429,-328 655.3429,-292 738.6571,-292 738.6571,-328"/>
<text text-anchor="middle" x="697" y="-305.8" font-family="Times,serif" font-size="14.00" fill="#000000">AppModule</text>
</g>
<!-- AuthModule&#45;&gt;AppModule -->
<g id="edge1" class="edge">
<title>AuthModule&#45;&gt;AppModule</title>
<path fill="none" stroke="#000000" d="M365,-198.0718C365,-234.6481 365,-314 365,-314 365,-314 645.2881,-314 645.2881,-314"/>
<polygon fill="#000000" stroke="#000000" points="645.2882,-317.5001 655.2881,-314 645.2881,-310.5001 645.2882,-317.5001"/>
</g>
<!-- AuthService  -->
<g id="node9" class="node">
<title>AuthService </title>
<polygon fill="#fb8072" stroke="#000000" points="699.9761,-122 610.0239,-122 610.0239,-86 699.9761,-86 699.9761,-122"/>
<text text-anchor="middle" x="655" y="-99.8" font-family="Times,serif" font-size="14.00" fill="#000000">AuthService </text>
</g>
<!-- AuthModule&#45;&gt;AuthService  -->
<g id="edge8" class="edge">
<title>AuthModule&#45;&gt;AuthService </title>
<path fill="none" stroke="#000000" stroke-dasharray="5,2" d="M365,-161.8097C365,-158.4624 365,-156 365,-156 365,-156 623.2407,-156 623.2407,-156 623.2407,-156 623.2407,-132.1871 623.2407,-132.1871"/>
<polygon fill="#000000" stroke="#000000" points="626.7408,-132.187 623.2407,-122.1871 619.7408,-132.1871 626.7408,-132.187"/>
</g>
<!-- EmailModule -->
<g id="node2" class="node">
<title>EmailModule</title>
<polygon fill="#8dd3c7" stroke="#000000" points="658.4888,-263 655.4888,-267 634.4888,-267 631.4888,-263 565.5112,-263 565.5112,-227 658.4888,-227 658.4888,-263"/>
<text text-anchor="middle" x="612" y="-240.8" font-family="Times,serif" font-size="14.00" fill="#000000">EmailModule</text>
</g>
<!-- EmailModule&#45;&gt;AppModule -->
<g id="edge2" class="edge">
<title>EmailModule&#45;&gt;AppModule</title>
<path fill="none" stroke="#000000" d="M658.6284,-236C679.1405,-236 698.6613,-236 698.6613,-236 698.6613,-236 698.6613,-281.7079 698.6613,-281.7079"/>
<polygon fill="#000000" stroke="#000000" points="695.1614,-281.7078 698.6613,-291.7079 702.1614,-281.7079 695.1614,-281.7078"/>
</g>
<!-- CloudNotificationService  -->
<g id="node14" class="node">
<title>CloudNotificationService </title>
<polygon fill="#fb8072" stroke="#000000" points="1459.8546,-263 1296.1454,-263 1296.1454,-227 1459.8546,-227 1459.8546,-263"/>
<text text-anchor="middle" x="1378" y="-240.8" font-family="Times,serif" font-size="14.00" fill="#000000">CloudNotificationService </text>
</g>
<!-- EmailModule&#45;&gt;CloudNotificationService  -->
<g id="edge15" class="edge">
<title>EmailModule&#45;&gt;CloudNotificationService </title>
<path fill="none" stroke="#000000" stroke-dasharray="5,2" d="M643.336,-226.8314C643.336,-222.9541 643.336,-220 643.336,-220 643.336,-220 1328.9937,-220 1328.9937,-220 1328.9937,-220 1328.9937,-220.6831 1328.9937,-220.6831"/>
<polygon fill="#000000" stroke="#000000" points="1325.4939,-216.8313 1328.9937,-226.8314 1332.4939,-216.8314 1325.4939,-216.8313"/>
</g>
<!-- EmailService  -->
<g id="node15" class="node">
<title>EmailService </title>
<polygon fill="#fb8072" stroke="#000000" points="1572.4166,-263 1477.5834,-263 1477.5834,-227 1572.4166,-227 1572.4166,-263"/>
<text text-anchor="middle" x="1525" y="-240.8" font-family="Times,serif" font-size="14.00" fill="#000000">EmailService </text>
</g>
<!-- EmailModule&#45;&gt;EmailService  -->
<g id="edge16" class="edge">
<title>EmailModule&#45;&gt;EmailService </title>
<path fill="none" stroke="#000000" stroke-dasharray="5,2" d="M639.7774,-226.7566C639.7774,-219.5703 639.7774,-213 639.7774,-213 639.7774,-213 1525,-213 1525,-213 1525,-213 1525,-216.7566 1525,-216.7566"/>
<polygon fill="#000000" stroke="#000000" points="1521.5001,-216.7566 1525,-226.7566 1528.5001,-216.7566 1521.5001,-216.7566"/>
</g>
<!-- ExpenseModule -->
<g id="node3" class="node">
<title>ExpenseModule</title>
<polygon fill="#8dd3c7" stroke="#000000" points="533.4762,-198 530.4762,-202 509.4762,-202 506.4762,-198 426.5238,-198 426.5238,-162 533.4762,-162 533.4762,-198"/>
<text text-anchor="middle" x="480" y="-175.8" font-family="Times,serif" font-size="14.00" fill="#000000">ExpenseModule</text>
</g>
<!-- ExpenseModule&#45;&gt;AppModule -->
<g id="edge3" class="edge">
<title>ExpenseModule&#45;&gt;AppModule</title>
<path fill="none" stroke="#000000" d="M515.6587,-198.196C515.6587,-233.3126 515.6587,-307 515.6587,-307 515.6587,-307 644.9409,-307 644.9409,-307"/>
<polygon fill="#000000" stroke="#000000" points="644.9409,-310.5001 654.9409,-307 644.9408,-303.5001 644.9409,-310.5001"/>
</g>
<!-- ExpenseModule&#45;&gt;CloudNotificationService  -->
<g id="edge19" class="edge">
<title>ExpenseModule&#45;&gt;CloudNotificationService </title>
<path fill="none" stroke="#000000" stroke-dasharray="5,2" d="M444.3413,-198.1097C444.3413,-207.897 444.3413,-218 444.3413,-218 444.3413,-218 1361.6646,-218 1361.6646,-218 1361.6646,-218 1361.6646,-218.8841 1361.6646,-218.8841"/>
<polygon fill="#000000" stroke="#000000" points="1358.1647,-216.8408 1361.6646,-226.8408 1365.1647,-216.8409 1358.1647,-216.8408"/>
</g>
<!-- ExpenseService  -->
<g id="node18" class="node">
<title>ExpenseService </title>
<polygon fill="#fb8072" stroke="#000000" points="1890.404,-263 1781.596,-263 1781.596,-227 1890.404,-227 1890.404,-263"/>
<text text-anchor="middle" x="1836" y="-240.8" font-family="Times,serif" font-size="14.00" fill="#000000">ExpenseService </text>
</g>
<!-- ExpenseModule&#45;&gt;ExpenseService  -->
<g id="edge20" class="edge">
<title>ExpenseModule&#45;&gt;ExpenseService </title>
<path fill="none" stroke="#000000" stroke-dasharray="5,2" d="M462.1706,-198.2015C462.1706,-204.028 462.1706,-209 462.1706,-209 462.1706,-209 1836,-209 1836,-209 1836,-209 1836,-216.5782 1836,-216.5782"/>
<polygon fill="#000000" stroke="#000000" points="1832.5001,-216.5781 1836,-226.5782 1839.5001,-216.5782 1832.5001,-216.5781"/>
</g>
<!-- PlanModule -->
<g id="node4" class="node">
<title>PlanModule</title>
<polygon fill="#8dd3c7" stroke="#000000" points="636.4387,-198 633.4387,-202 612.4387,-202 609.4387,-198 551.5613,-198 551.5613,-162 636.4387,-162 636.4387,-198"/>
<text text-anchor="middle" x="594" y="-175.8" font-family="Times,serif" font-size="14.00" fill="#000000">PlanModule</text>
</g>
<!-- PlanModule&#45;&gt;EmailModule -->
<g id="edge13" class="edge">
<title>PlanModule&#45;&gt;EmailModule</title>
<path fill="none" stroke="#000000" d="M574.3448,-198.1061C574.3448,-198.1061 574.3448,-216.991 574.3448,-216.991"/>
<polygon fill="#000000" stroke="#000000" points="570.8448,-216.9909 574.3448,-226.991 577.8448,-216.991 570.8448,-216.9909"/>
</g>
<!-- PlanModule&#45;&gt;AppModule -->
<g id="edge4" class="edge">
<title>PlanModule&#45;&gt;AppModule</title>
<path fill="none" stroke="#000000" d="M558.6434,-198.2254C558.6434,-231.795 558.6434,-300 558.6434,-300 558.6434,-300 645.113,-300 645.113,-300"/>
<polygon fill="#000000" stroke="#000000" points="645.113,-303.5001 655.113,-300 645.113,-296.5001 645.113,-303.5001"/>
</g>
<!-- PlanModule&#45;&gt;CloudNotificationService  -->
<g id="edge23" class="edge">
<title>PlanModule&#45;&gt;CloudNotificationService </title>
<path fill="none" stroke="#000000" stroke-dasharray="5,2" d="M583.1839,-198.0664C583.1839,-207.4587 583.1839,-217 583.1839,-217 583.1839,-217 1394.3354,-217 1394.3354,-217 1394.3354,-217 1394.3354,-217.9793 1394.3354,-217.9793"/>
<polygon fill="#000000" stroke="#000000" points="1390.8355,-216.793 1394.3354,-226.793 1397.8355,-216.7931 1390.8355,-216.793"/>
</g>
<!-- PlanService  -->
<g id="node20" class="node">
<title>PlanService </title>
<polygon fill="#fb8072" stroke="#000000" points="2288.3662,-263 2201.6338,-263 2201.6338,-227 2288.3662,-227 2288.3662,-263"/>
<text text-anchor="middle" x="2245" y="-240.8" font-family="Times,serif" font-size="14.00" fill="#000000">PlanService </text>
</g>
<!-- PlanModule&#45;&gt;PlanService  -->
<g id="edge24" class="edge">
<title>PlanModule&#45;&gt;PlanService </title>
<path fill="none" stroke="#000000" stroke-dasharray="5,2" d="M592.0231,-198.1679C592.0231,-200.4478 592.0231,-202 592.0231,-202 592.0231,-202 2230.6058,-202 2230.6058,-202 2230.6058,-202 2230.6058,-216.5146 2230.6058,-216.5146"/>
<polygon fill="#000000" stroke="#000000" points="2227.1059,-216.5145 2230.6058,-226.5146 2234.1059,-216.5146 2227.1059,-216.5145"/>
</g>
<!-- UserService  -->
<g id="node21" class="node">
<title>UserService </title>
<polygon fill="#fb8072" stroke="#000000" points="2393.9041,-263 2306.0959,-263 2306.0959,-227 2393.9041,-227 2393.9041,-263"/>
<text text-anchor="middle" x="2350" y="-240.8" font-family="Times,serif" font-size="14.00" fill="#000000">UserService </text>
</g>
<!-- PlanModule&#45;&gt;UserService  -->
<g id="edge25" class="edge">
<title>PlanModule&#45;&gt;UserService </title>
<path fill="none" stroke="#000000" stroke-dasharray="5,2" d="M600.8622,-198.1543C600.8622,-199.2969 600.8622,-200 600.8622,-200 600.8622,-200 2335.3493,-200 2335.3493,-200 2335.3493,-200 2335.3493,-216.9561 2335.3493,-216.9561"/>
<polygon fill="#000000" stroke="#000000" points="2331.8494,-216.956 2335.3493,-226.9561 2338.8494,-216.9561 2331.8494,-216.956"/>
</g>
<!-- ScheduleModule -->
<g id="node5" class="node">
<title>ScheduleModule</title>
<polygon fill="#8dd3c7" stroke="#000000" points="868.3669,-198 865.3669,-202 844.3669,-202 841.3669,-198 757.6331,-198 757.6331,-162 868.3669,-162 868.3669,-198"/>
<text text-anchor="middle" x="813" y="-175.8" font-family="Times,serif" font-size="14.00" fill="#000000">ScheduleModule</text>
</g>
<!-- ScheduleModule&#45;&gt;AppModule -->
<g id="edge5" class="edge">
<title>ScheduleModule&#45;&gt;AppModule</title>
<path fill="none" stroke="#000000" d="M813,-198.0759C813,-233.7964 813,-310 813,-310 813,-310 748.8787,-310 748.8787,-310"/>
<polygon fill="#000000" stroke="#000000" points="748.8787,-306.5001 738.8787,-310 748.8786,-313.5001 748.8787,-306.5001"/>
</g>
<!-- ScheduleService  -->
<g id="node24" class="node">
<title>ScheduleService </title>
<polygon fill="#fb8072" stroke="#000000" points="2720.2948,-263 2607.7052,-263 2607.7052,-227 2720.2948,-227 2720.2948,-263"/>
<text text-anchor="middle" x="2664" y="-240.8" font-family="Times,serif" font-size="14.00" fill="#000000">ScheduleService </text>
</g>
<!-- ScheduleModule&#45;&gt;ScheduleService  -->
<g id="edge29" class="edge">
<title>ScheduleModule&#45;&gt;ScheduleService </title>
<path fill="none" stroke="#000000" stroke-dasharray="5,2" d="M868.3968,-174C1176.3805,-174 2664,-174 2664,-174 2664,-174 2664,-216.7157 2664,-216.7157"/>
<polygon fill="#000000" stroke="#000000" points="2660.5001,-216.7157 2664,-226.7157 2667.5001,-216.7158 2660.5001,-216.7157"/>
</g>
<!-- UserModule -->
<g id="node6" class="node">
<title>UserModule</title>
<polygon fill="#8dd3c7" stroke="#000000" points="739.9762,-198 736.9762,-202 715.9762,-202 712.9762,-198 654.0238,-198 654.0238,-162 739.9762,-162 739.9762,-198"/>
<text text-anchor="middle" x="697" y="-175.8" font-family="Times,serif" font-size="14.00" fill="#000000">UserModule</text>
</g>
<!-- UserModule&#45;&gt;EmailModule -->
<g id="edge14" class="edge">
<title>UserModule&#45;&gt;EmailModule</title>
<path fill="none" stroke="#000000" d="M653.8616,-180C649.647,-180 646.8947,-180 646.8947,-180 646.8947,-180 646.8947,-216.8939 646.8947,-216.8939"/>
<polygon fill="#000000" stroke="#000000" points="643.3948,-216.8938 646.8947,-226.8939 650.3948,-216.8939 643.3948,-216.8938"/>
</g>
<!-- UserModule&#45;&gt;AppModule -->
<g id="edge6" class="edge">
<title>UserModule&#45;&gt;AppModule</title>
<path fill="none" stroke="#000000" d="M712.0503,-198.0759C712.0503,-198.0759 712.0503,-281.6585 712.0503,-281.6585"/>
<polygon fill="#000000" stroke="#000000" points="708.5504,-281.6585 712.0503,-291.6585 715.5504,-281.6585 708.5504,-281.6585"/>
</g>
<!-- UserModule&#45;&gt;CloudNotificationService  -->
<g id="edge31" class="edge">
<title>UserModule&#45;&gt;CloudNotificationService </title>
<path fill="none" stroke="#000000" stroke-dasharray="5,2" d="M685.2723,-198.32C685.2723,-206.7883 685.2723,-215 685.2723,-215 685.2723,-215 1427.0063,-215 1427.0063,-215 1427.0063,-215 1427.0063,-216.8568 1427.0063,-216.8568"/>
<polygon fill="#000000" stroke="#000000" points="1423.5064,-216.8568 1427.0063,-226.8568 1430.5064,-216.8568 1423.5064,-216.8568"/>
</g>
<!-- UserModule&#45;&gt;PlanService  -->
<g id="edge32" class="edge">
<title>UserModule&#45;&gt;PlanService </title>
<path fill="none" stroke="#000000" stroke-dasharray="5,2" d="M719.8628,-161.8495C719.8628,-149.7292 719.8628,-136 719.8628,-136 719.8628,-136 2259.3942,-136 2259.3942,-136 2259.3942,-136 2259.3942,-216.5096 2259.3942,-216.5096"/>
<polygon fill="#000000" stroke="#000000" points="2255.8943,-216.5096 2259.3942,-226.5096 2262.8943,-216.5097 2255.8943,-216.5096"/>
</g>
<!-- UserModule&#45;&gt;UserService  -->
<g id="edge33" class="edge">
<title>UserModule&#45;&gt;UserService </title>
<path fill="none" stroke="#000000" stroke-dasharray="5,2" d="M709.8001,-161.8757C709.8001,-147.2168 709.8001,-129 709.8001,-129 709.8001,-129 2364.6507,-129 2364.6507,-129 2364.6507,-129 2364.6507,-216.875 2364.6507,-216.875"/>
<polygon fill="#000000" stroke="#000000" points="2361.1508,-216.875 2364.6507,-226.875 2368.1508,-216.875 2361.1508,-216.875"/>
</g>
<!-- AppService -->
<g id="node8" class="node">
<title>AppService</title>
<ellipse fill="#fdb462" stroke="#000000" cx="240" cy="-245" rx="56.7406" ry="18"/>
<text text-anchor="middle" x="240" y="-240.8" font-family="Times,serif" font-size="14.00" fill="#000000">AppService</text>
</g>
<!-- AppService&#45;&gt;AppModule -->
<g id="edge7" class="edge">
<title>AppService&#45;&gt;AppModule</title>
<path fill="none" stroke="#000000" d="M240,-263.0109C240,-285.4852 240,-321 240,-321 240,-321 645.2328,-321 645.2328,-321"/>
<polygon fill="#000000" stroke="#000000" points="645.2328,-324.5001 655.2328,-321 645.2328,-317.5001 645.2328,-324.5001"/>
</g>
<!-- AuthService -->
<g id="node10" class="node">
<title>AuthService</title>
<ellipse fill="#fdb462" stroke="#000000" cx="215" cy="-104" rx="59.1083" ry="18"/>
<text text-anchor="middle" x="215" y="-99.8" font-family="Times,serif" font-size="14.00" fill="#000000">AuthService</text>
</g>
<!-- AuthService&#45;&gt;AuthModule -->
<g id="edge9" class="edge">
<title>AuthService&#45;&gt;AuthModule</title>
<path fill="none" stroke="#000000" d="M228.8418,-121.664C228.8418,-142.4009 228.8418,-174 228.8418,-174 228.8418,-174 311.1692,-174 311.1692,-174"/>
<polygon fill="#000000" stroke="#000000" points="311.1693,-177.5001 321.1692,-174 311.1692,-170.5001 311.1693,-177.5001"/>
</g>
<!-- JwtStrategy -->
<g id="node11" class="node">
<title>JwtStrategy</title>
<ellipse fill="#fdb462" stroke="#000000" cx="81" cy="-104" rx="56.7561" ry="18"/>
<text text-anchor="middle" x="81" y="-99.8" font-family="Times,serif" font-size="14.00" fill="#000000">JwtStrategy</text>
</g>
<!-- JwtStrategy&#45;&gt;AuthModule -->
<g id="edge10" class="edge">
<title>JwtStrategy&#45;&gt;AuthModule</title>
<path fill="none" stroke="#000000" d="M81,-122.1985C81,-146.3563 81,-186 81,-186 81,-186 311.2474,-186 311.2474,-186"/>
<polygon fill="#000000" stroke="#000000" points="311.2474,-189.5001 321.2474,-186 311.2474,-182.5001 311.2474,-189.5001"/>
</g>
<!-- LocalStrategy -->
<g id="node12" class="node">
<title>LocalStrategy</title>
<ellipse fill="#fdb462" stroke="#000000" cx="521" cy="-104" rx="65.4053" ry="18"/>
<text text-anchor="middle" x="521" y="-99.8" font-family="Times,serif" font-size="14.00" fill="#000000">LocalStrategy</text>
</g>
<!-- LocalStrategy&#45;&gt;AuthModule -->
<g id="edge11" class="edge">
<title>LocalStrategy&#45;&gt;AuthModule</title>
<path fill="none" stroke="#000000" d="M494.6429,-120.5008C494.6429,-133.3438 494.6429,-149 494.6429,-149 494.6429,-149 386.8868,-149 386.8868,-149 386.8868,-149 386.8868,-151.9672 386.8868,-151.9672"/>
<polygon fill="#000000" stroke="#000000" points="383.3868,-151.9671 386.8868,-161.9672 390.3868,-151.9672 383.3868,-151.9671"/>
</g>
<!-- ValidateService -->
<g id="node13" class="node">
<title>ValidateService</title>
<ellipse fill="#fdb462" stroke="#000000" cx="365" cy="-104" rx="72.9063" ry="18"/>
<text text-anchor="middle" x="365" y="-99.8" font-family="Times,serif" font-size="14.00" fill="#000000">ValidateService</text>
</g>
<!-- ValidateService&#45;&gt;AuthModule -->
<g id="edge12" class="edge">
<title>ValidateService&#45;&gt;AuthModule</title>
<path fill="none" stroke="#000000" d="M343.1133,-121.2456C343.1133,-121.2456 343.1133,-151.7629 343.1133,-151.7629"/>
<polygon fill="#000000" stroke="#000000" points="339.6133,-151.7628 343.1133,-161.7629 346.6133,-151.7629 339.6133,-151.7628"/>
</g>
<!-- CloudNotificationService -->
<g id="node16" class="node">
<title>CloudNotificationService</title>
<ellipse fill="#fdb462" stroke="#000000" cx="1018" cy="-245" rx="110.0295" ry="18"/>
<text text-anchor="middle" x="1018" y="-240.8" font-family="Times,serif" font-size="14.00" fill="#000000">CloudNotificationService</text>
</g>
<!-- CloudNotificationService&#45;&gt;EmailModule -->
<g id="edge17" class="edge">
<title>CloudNotificationService&#45;&gt;EmailModule</title>
<path fill="none" stroke="#000000" d="M922.2978,-254C922.2978,-254 668.7018,-254 668.7018,-254"/>
<polygon fill="#000000" stroke="#000000" points="668.7018,-250.5001 658.7018,-254 668.7018,-257.5001 668.7018,-250.5001"/>
</g>
<!-- CloudNotificationService&#45;&gt;ExpenseModule -->
<g id="edge21" class="edge">
<title>CloudNotificationService&#45;&gt;ExpenseModule</title>
<path fill="none" stroke="#000000" d="M981.2452,-227.7534C981.2452,-226.668 981.2452,-226 981.2452,-226 981.2452,-226 480,-226 480,-226 480,-226 480,-208.1804 480,-208.1804"/>
<polygon fill="#000000" stroke="#000000" points="483.5001,-208.1804 480,-198.1804 476.5001,-208.1805 483.5001,-208.1804"/>
</g>
<!-- CloudNotificationService&#45;&gt;PlanModule -->
<g id="edge26" class="edge">
<title>CloudNotificationService&#45;&gt;PlanModule</title>
<path fill="none" stroke="#000000" d="M1054.7548,-227.6579C1054.7548,-225.4817 1054.7548,-224 1054.7548,-224 1054.7548,-224 609.7014,-224 609.7014,-224 609.7014,-224 609.7014,-208.1505 609.7014,-208.1505"/>
<polygon fill="#000000" stroke="#000000" points="613.2014,-208.1505 609.7014,-198.1505 606.2014,-208.1506 613.2014,-208.1505"/>
</g>
<!-- CloudNotificationService&#45;&gt;UserModule -->
<g id="edge34" class="edge">
<title>CloudNotificationService&#45;&gt;UserModule</title>
<path fill="none" stroke="#000000" d="M907.3953,-245C824.5472,-245 725.4392,-245 725.4392,-245 725.4392,-245 725.4392,-208.1061 725.4392,-208.1061"/>
<polygon fill="#000000" stroke="#000000" points="728.9393,-208.1061 725.4392,-198.1061 721.9393,-208.1062 728.9393,-208.1061"/>
</g>
<!-- EmailService -->
<g id="node17" class="node">
<title>EmailService</title>
<ellipse fill="#fdb462" stroke="#000000" cx="1209" cy="-245" rx="63.1151" ry="18"/>
<text text-anchor="middle" x="1209" y="-240.8" font-family="Times,serif" font-size="14.00" fill="#000000">EmailService</text>
</g>
<!-- EmailService&#45;&gt;EmailModule -->
<g id="edge18" class="edge">
<title>EmailService&#45;&gt;EmailModule</title>
<path fill="none" stroke="#000000" d="M1209,-226.8777C1209,-224.0271 1209,-222 1209,-222 1209,-222 650.4533,-222 650.4533,-222 650.4533,-222 650.4533,-222.4878 650.4533,-222.4878"/>
<polygon fill="#000000" stroke="#000000" points="646.9535,-216.8776 650.4533,-226.8777 653.9535,-216.8778 646.9535,-216.8776"/>
</g>
<!-- ExpenseService -->
<g id="node19" class="node">
<title>ExpenseService</title>
<ellipse fill="#fdb462" stroke="#000000" cx="1685" cy="-245" rx="72.9121" ry="18"/>
<text text-anchor="middle" x="1685" y="-240.8" font-family="Times,serif" font-size="14.00" fill="#000000">ExpenseService</text>
</g>
<!-- ExpenseService&#45;&gt;ExpenseModule -->
<g id="edge22" class="edge">
<title>ExpenseService&#45;&gt;ExpenseModule</title>
<path fill="none" stroke="#000000" d="M1685,-226.8056C1685,-218.7218 1685,-211 1685,-211 1685,-211 497.8294,-211 497.8294,-211 497.8294,-211 497.8294,-208.0328 497.8294,-208.0328"/>
<polygon fill="#000000" stroke="#000000" points="501.3295,-208.0328 497.8294,-198.0328 494.3295,-208.0329 501.3295,-208.0328"/>
</g>
<!-- PlanService -->
<g id="node22" class="node">
<title>PlanService</title>
<ellipse fill="#fdb462" stroke="#000000" cx="1987" cy="-245" rx="57.3185" ry="18"/>
<text text-anchor="middle" x="1987" y="-240.8" font-family="Times,serif" font-size="14.00" fill="#000000">PlanService</text>
</g>
<!-- PlanService&#45;&gt;PlanModule -->
<g id="edge27" class="edge">
<title>PlanService&#45;&gt;PlanModule</title>
<path fill="none" stroke="#000000" d="M1967.947,-227.7998C1967.947,-218.1375 1967.947,-208 1967.947,-208 1967.947,-208 618.5405,-208 618.5405,-208 618.5405,-208 618.5405,-207.0207 618.5405,-207.0207"/>
<polygon fill="#000000" stroke="#000000" points="622.0406,-208.2069 618.5405,-198.207 615.0406,-208.207 622.0406,-208.2069"/>
</g>
<!-- PlanService&#45;&gt;UserModule -->
<g id="edge35" class="edge">
<title>PlanService&#45;&gt;UserModule</title>
<path fill="none" stroke="#000000" d="M2006.053,-227.7805C2006.053,-217.3329 2006.053,-206 2006.053,-206 2006.053,-206 671.8834,-206 671.8834,-206 671.8834,-206 671.8834,-205.2058 671.8834,-205.2058"/>
<polygon fill="#000000" stroke="#000000" points="675.3835,-208.0578 671.8834,-198.0579 668.3835,-208.0579 675.3835,-208.0578"/>
</g>
<!-- UserService -->
<g id="node23" class="node">
<title>UserService</title>
<ellipse fill="#fdb462" stroke="#000000" cx="2120" cy="-245" rx="58.4415" ry="18"/>
<text text-anchor="middle" x="2120" y="-240.8" font-family="Times,serif" font-size="14.00" fill="#000000">UserService</text>
</g>
<!-- UserService&#45;&gt;PlanModule -->
<g id="edge28" class="edge">
<title>UserService&#45;&gt;PlanModule</title>
<path fill="none" stroke="#000000" d="M2139.4068,-227.8499C2139.4068,-216.6148 2139.4068,-204 2139.4068,-204 2139.4068,-204 627.3797,-204 627.3797,-204 627.3797,-204 627.3797,-203.419 627.3797,-203.419"/>
<polygon fill="#000000" stroke="#000000" points="630.8798,-208.1902 627.3797,-198.1903 623.8798,-208.1903 630.8798,-208.1902"/>
</g>
<!-- UserService&#45;&gt;UserModule -->
<g id="edge36" class="edge">
<title>UserService&#45;&gt;UserModule</title>
<path fill="none" stroke="#000000" d="M2100.5932,-227.9916C2100.5932,-198.7368 2100.5932,-142 2100.5932,-142 2100.5932,-142 729.9254,-142 729.9254,-142 729.9254,-142 729.9254,-151.8903 729.9254,-151.8903"/>
<polygon fill="#000000" stroke="#000000" points="726.4255,-151.8903 729.9254,-161.8903 733.4255,-151.8904 726.4255,-151.8903"/>
</g>
<!-- ScheduleService -->
<g id="node25" class="node">
<title>ScheduleService</title>
<ellipse fill="#fdb462" stroke="#000000" cx="2509" cy="-245" rx="75.279" ry="18"/>
<text text-anchor="middle" x="2509" y="-240.8" font-family="Times,serif" font-size="14.00" fill="#000000">ScheduleService</text>
</g>
<!-- ScheduleService&#45;&gt;ScheduleModule -->
<g id="edge30" class="edge">
<title>ScheduleService&#45;&gt;ScheduleModule</title>
<path fill="none" stroke="#000000" d="M2509,-226.9775C2509,-209.6266 2509,-186 2509,-186 2509,-186 878.4647,-186 878.4647,-186"/>
<polygon fill="#000000" stroke="#000000" points="878.4648,-182.5001 868.4647,-186 878.4647,-189.5001 878.4648,-182.5001"/>
</g>
</g>
</svg>
