<?xml version="1.0" encoding="UTF-8" standalone="no"?>
<!DOCTYPE svg PUBLIC "-//W3C//DTD SVG 1.1//EN"
 "http://www.w3.org/Graphics/SVG/1.1/DTD/svg11.dtd">
<!-- Generated by graphviz version 2.40.1 (20161225.0304)
 -->
<!-- Title: dependencies Pages: 1 -->
<svg width="632pt" height="284pt"
 viewBox="0.00 0.00 632.00 284.00" xmlns="http://www.w3.org/2000/svg" xmlns:xlink="http://www.w3.org/1999/xlink">
<g id="graph0" class="graph" transform="scale(1 1) rotate(0) translate(4 280)">
<title>dependencies</title>
<polygon fill="#ffffff" stroke="transparent" points="-4,4 -4,-280 628,-280 628,4 -4,4"/>
<text text-anchor="start" x="291.0091" y="-42.4" font-family="sans-serif" font-weight="bold" font-size="14.00" fill="#000000">Legend</text>
<polygon fill="#ffffb3" stroke="transparent" points="78,-10 78,-30 98,-30 98,-10 78,-10"/>
<text text-anchor="start" x="101.629" y="-15.4" font-family="sans-serif" font-size="14.00" fill="#000000"> &#160;Declarations</text>
<polygon fill="#8dd3c7" stroke="transparent" points="191,-10 191,-30 211,-30 211,-10 191,-10"/>
<text text-anchor="start" x="214.7251" y="-15.4" font-family="sans-serif" font-size="14.00" fill="#000000"> &#160;Module</text>
<polygon fill="#80b1d3" stroke="transparent" points="277,-10 277,-30 297,-30 297,-10 277,-10"/>
<text text-anchor="start" x="300.7812" y="-15.4" font-family="sans-serif" font-size="14.00" fill="#000000"> &#160;Bootstrap</text>
<polygon fill="#fdb462" stroke="transparent" points="374,-10 374,-30 394,-30 394,-10 374,-10"/>
<text text-anchor="start" x="397.6732" y="-15.4" font-family="sans-serif" font-size="14.00" fill="#000000"> &#160;Providers</text>
<polygon fill="#fb8072" stroke="transparent" points="470,-10 470,-30 490,-30 490,-10 470,-10"/>
<text text-anchor="start" x="493.7258" y="-15.4" font-family="sans-serif" font-size="14.00" fill="#000000"> &#160;Exports</text>
<g id="clust1" class="cluster">
<title>cluster_EmailModule</title>
<polygon fill="none" stroke="#000000" stroke-dasharray="1,5" points="8,-70 8,-268 616,-268 616,-70 8,-70"/>
</g>
<g id="clust3" class="cluster">
<title>cluster_EmailModule_imports</title>
<polygon fill="none" stroke="#000000" points="404,-78 404,-130 608,-130 608,-78 404,-78"/>
</g>
<g id="clust4" class="cluster">
<title>cluster_EmailModule_exports</title>
<polygon fill="none" stroke="#000000" points="196,-208 196,-260 488,-260 488,-208 196,-208"/>
</g>
<g id="clust6" class="cluster">
<title>cluster_EmailModule_providers</title>
<polygon fill="none" stroke="#000000" points="16,-78 16,-130 396,-130 396,-78 16,-78"/>
</g>
<!-- PlanModule -->
<g id="node1" class="node">
<title>PlanModule</title>
<polygon fill="#8dd3c7" stroke="#000000" points="600.4387,-122 597.4387,-126 576.4387,-126 573.4387,-122 515.5613,-122 515.5613,-86 600.4387,-86 600.4387,-122"/>
<text text-anchor="middle" x="558" y="-99.8" font-family="Times,serif" font-size="14.00" fill="#000000">PlanModule</text>
</g>
<!-- EmailModule -->
<g id="node3" class="node">
<title>EmailModule</title>
<polygon fill="#8dd3c7" stroke="#000000" points="370.4888,-187 367.4888,-191 346.4888,-191 343.4888,-187 277.5112,-187 277.5112,-151 370.4888,-151 370.4888,-187"/>
<text text-anchor="middle" x="324" y="-164.8" font-family="Times,serif" font-size="14.00" fill="#000000">EmailModule</text>
</g>
<!-- PlanModule&#45;&gt;EmailModule -->
<g id="edge1" class="edge">
<title>PlanModule&#45;&gt;EmailModule</title>
<path fill="none" stroke="#000000" d="M558,-122.2843C558,-143.3211 558,-175 558,-175 558,-175 380.5106,-175 380.5106,-175"/>
<polygon fill="#000000" stroke="#000000" points="380.5107,-171.5001 370.5106,-175 380.5106,-178.5001 380.5107,-171.5001"/>
</g>
<!-- UserModule -->
<g id="node2" class="node">
<title>UserModule</title>
<polygon fill="#8dd3c7" stroke="#000000" points="497.9762,-122 494.9762,-126 473.9762,-126 470.9762,-122 412.0238,-122 412.0238,-86 497.9762,-86 497.9762,-122"/>
<text text-anchor="middle" x="455" y="-99.8" font-family="Times,serif" font-size="14.00" fill="#000000">UserModule</text>
</g>
<!-- UserModule&#45;&gt;EmailModule -->
<g id="edge2" class="edge">
<title>UserModule&#45;&gt;EmailModule</title>
<path fill="none" stroke="#000000" d="M445.8445,-122.0225C445.8445,-139.3734 445.8445,-163 445.8445,-163 445.8445,-163 380.7598,-163 380.7598,-163"/>
<polygon fill="#000000" stroke="#000000" points="380.7598,-159.5001 370.7598,-163 380.7598,-166.5001 380.7598,-159.5001"/>
</g>
<!-- CloudNotificationService  -->
<g id="node4" class="node">
<title>CloudNotificationService </title>
<polygon fill="#fb8072" stroke="#000000" points="479.8546,-252 316.1454,-252 316.1454,-216 479.8546,-216 479.8546,-252"/>
<text text-anchor="middle" x="398" y="-229.8" font-family="Times,serif" font-size="14.00" fill="#000000">CloudNotificationService </text>
</g>
<!-- EmailModule&#45;&gt;CloudNotificationService  -->
<g id="edge3" class="edge">
<title>EmailModule&#45;&gt;CloudNotificationService </title>
<path fill="none" stroke="#000000" stroke-dasharray="5,2" d="M343.4086,-187.1061C343.4086,-187.1061 343.4086,-205.991 343.4086,-205.991"/>
<polygon fill="#000000" stroke="#000000" points="339.9087,-205.9909 343.4086,-215.991 346.9087,-205.991 339.9087,-205.9909"/>
</g>
<!-- EmailService  -->
<g id="node5" class="node">
<title>EmailService </title>
<polygon fill="#fb8072" stroke="#000000" points="298.4166,-252 203.5834,-252 203.5834,-216 298.4166,-216 298.4166,-252"/>
<text text-anchor="middle" x="251" y="-229.8" font-family="Times,serif" font-size="14.00" fill="#000000">EmailService </text>
</g>
<!-- EmailModule&#45;&gt;EmailService  -->
<g id="edge4" class="edge">
<title>EmailModule&#45;&gt;EmailService </title>
<path fill="none" stroke="#000000" stroke-dasharray="5,2" d="M287.982,-187.1061C287.982,-187.1061 287.982,-205.991 287.982,-205.991"/>
<polygon fill="#000000" stroke="#000000" points="284.482,-205.9909 287.982,-215.991 291.482,-205.991 284.482,-205.9909"/>
</g>
<!-- CloudNotificationService -->
<g id="node6" class="node">
<title>CloudNotificationService</title>
<ellipse fill="#fdb462" stroke="#000000" cx="278" cy="-104" rx="110.0295" ry="18"/>
<text text-anchor="middle" x="278" y="-99.8" font-family="Times,serif" font-size="14.00" fill="#000000">CloudNotificationService</text>
</g>
<!-- CloudNotificationService&#45;&gt;EmailModule -->
<g id="edge5" class="edge">
<title>CloudNotificationService&#45;&gt;EmailModule</title>
<path fill="none" stroke="#000000" d="M324,-120.4022C324,-120.4022 324,-140.5366 324,-140.5366"/>
<polygon fill="#000000" stroke="#000000" points="320.5001,-140.5366 324,-150.5366 327.5001,-140.5367 320.5001,-140.5366"/>
</g>
<!-- EmailService -->
<g id="node7" class="node">
<title>EmailService</title>
<ellipse fill="#fdb462" stroke="#000000" cx="87" cy="-104" rx="63.1151" ry="18"/>
<text text-anchor="middle" x="87" y="-99.8" font-family="Times,serif" font-size="14.00" fill="#000000">EmailService</text>
</g>
<!-- EmailService&#45;&gt;EmailModule -->
<g id="edge6" class="edge">
<title>EmailService&#45;&gt;EmailModule</title>
<path fill="none" stroke="#000000" d="M87,-122.1061C87,-141.3391 87,-169 87,-169 87,-169 267.4592,-169 267.4592,-169"/>
<polygon fill="#000000" stroke="#000000" points="267.4592,-172.5001 277.4592,-169 267.4592,-165.5001 267.4592,-172.5001"/>
</g>
</g>
</svg>
